<svg width="38" height="46" viewBox="0 0 38 46" fill="none" xmlns="http://www.w3.org/2000/svg">
<path fill-rule="evenodd" clip-rule="evenodd" d="M32.7679 2.16126C32.9403 2.08255 32.9094 1.82835 32.7219 1.80002C28.3034 1.13251 20.9798 0.84864 12.9121 5.24688C2.4024 10.9765 2.51219 18.488 4.11897 21.3468C4.17068 21.4388 4.14226 21.5545 4.05257 21.6101L3.17195 22.1566C3.08234 22.2122 2.96543 22.1866 2.91267 22.0953C0.78311 18.4092 1.16674 10.0351 12.2326 4.00235C22.8357 -1.7781 32.2327 0.183845 35.7998 0.928594C35.8569 0.940519 35.9125 0.952132 35.9666 0.963396L37.7305 1.3306C37.9183 1.36969 37.9378 1.63021 37.7579 1.69678L36.0683 2.32208C32.2993 3.71699 27.3271 6.41695 24.3497 8.62098C23.6074 9.1704 23.008 9.67531 22.5873 10.1089C22.377 10.3256 22.2226 10.513 22.1189 10.6689C22.0738 10.7365 22.0426 10.7918 22.0211 10.8356C22.0205 10.8367 22.0211 10.838 22.0223 10.8383C22.3179 10.9222 22.9134 10.9507 23.9389 10.8201L25.9257 10.5672C26.1213 10.5423 26.2218 10.7942 26.0628 10.9108L24.4483 12.0948C23.8156 12.5587 22.7804 13.2075 21.6632 13.9077C21.497 14.0118 21.329 14.1171 21.1603 14.2231C19.8368 15.0543 18.4447 15.9415 17.3909 16.7241C16.8618 17.1171 16.4426 17.4659 16.165 17.7536C16.138 17.7815 16.1565 17.8272 16.1952 17.8283C16.5625 17.8392 17.1039 17.8036 17.8653 17.6949L19.4045 17.4752C19.5862 17.4493 19.6964 17.6697 19.5665 17.7995L18.4672 18.8979C17.4042 19.9602 15.4181 21.3485 13.2191 22.427C11.0996 23.4664 8.65367 24.2824 6.56191 24.1526C6.4566 24.146 6.37921 24.0528 6.38878 23.9477L6.48274 22.9164C6.49231 22.8113 6.58506 22.7342 6.6904 22.74C8.39789 22.8336 10.5534 22.155 12.594 21.1543C13.7671 20.579 14.8599 19.9182 15.7572 19.2862C15.7868 19.2654 15.7746 19.2188 15.7387 19.2141C15.4682 19.1789 15.1829 19.1079 14.9452 18.9517C14.675 18.7742 14.4782 18.4899 14.459 18.1273C14.4426 17.816 14.5638 17.5459 14.6789 17.354C14.8005 17.1515 14.9649 16.9549 15.1436 16.7697C15.5019 16.3982 15.9942 15.9951 16.5446 15.5863C17.6497 14.7655 19.0881 13.85 20.4053 13.0228C20.5762 12.9154 20.7447 12.8098 20.9101 12.7061C21.1622 12.5481 21.4069 12.3947 21.6416 12.2469C21.6596 12.2355 21.6554 12.208 21.6349 12.2021C21.3343 12.1169 21.0209 11.9643 20.8035 11.6816C20.5691 11.3766 20.5233 11.0223 20.58 10.7037C20.633 10.4063 20.7749 10.1279 20.9377 9.88351C21.1046 9.63285 21.3209 9.37741 21.5688 9.12197C22.0643 8.61125 22.7312 8.0547 23.5051 7.4818C25.8893 5.71693 29.4686 3.6669 32.7679 2.16126ZM15.8686 18.135C15.8685 18.1352 15.8685 18.1352 15.8686 18.135V18.135Z" fill="#303030"/>
<path fill-rule="evenodd" clip-rule="evenodd" d="M24.13 4.4209C17.9851 5.67257 6.43182 10.7718 2.1183 23.8916C2.09566 23.9605 2.12886 24.0354 2.19502 24.065C2.56363 24.2301 2.81993 24.5996 2.81993 25.0285C2.81993 25.6113 2.34672 26.0838 1.763 26.0838C1.71401 26.0838 1.66587 26.0805 1.61878 26.0741C1.547 26.0643 1.47924 26.1102 1.4619 26.1805C1.03317 27.9201 0.726852 29.7859 0.566871 31.7856C0.560419 31.8663 0.612272 31.9401 0.690257 31.9616C0.709985 31.9671 0.730019 31.9688 0.749455 31.9671C0.748648 31.9776 0.747845 31.9881 0.747046 31.9986C0.752501 31.9877 0.757898 31.9766 0.76324 31.9654C0.814996 31.9566 0.860781 31.9235 0.882615 31.8725C1.00427 31.5884 1.09806 31.2353 1.19717 30.8622L1.20041 30.85C1.39117 30.1319 1.60981 29.3133 2.07961 28.6065C2.54488 27.9065 3.25989 27.312 4.45689 27.0533C4.54222 27.0348 4.59087 26.9442 4.55887 26.863C4.17354 25.8851 4.11175 24.4002 4.52162 22.6143C4.9307 20.8318 5.80713 18.7612 7.28193 16.6196C10.2157 12.3595 15.5164 7.81976 24.2059 4.71396C24.2809 4.68715 24.3238 4.60671 24.3026 4.52989C24.3003 4.5215 24.2974 4.51344 24.2939 4.50578C24.3093 4.50029 24.3247 4.4948 24.3401 4.48931C24.3237 4.49257 24.3072 4.49585 24.2907 4.49916C24.2606 4.44082 24.1969 4.40726 24.13 4.4209Z" fill="#303030"/>
<path d="M35.5382 16.9978C35.4628 16.8235 35.421 16.6313 35.421 16.4294C35.421 16.2256 35.4635 16.0318 35.5402 15.8563H30.3589C29.8309 15.8563 29.5668 15.8563 29.3412 15.9719C29.1155 16.0876 28.9613 16.3019 28.653 16.7306L27.3751 18.5072C27.0667 18.9359 26.9126 19.1503 26.6869 19.2659C26.4612 19.3816 26.1972 19.3816 25.6691 19.3816H23.074C22.5518 19.3816 22.2907 19.3816 22.0669 19.495C21.843 19.6084 21.6885 19.8189 21.3797 20.2399L19.6539 22.5922C20.0374 22.6961 20.3571 22.9553 20.5412 23.2982L21.9475 21.3815C22.2563 20.9605 22.4108 20.75 22.6347 20.6365C22.8585 20.5231 23.1196 20.5231 23.6418 20.5231H26.2436C26.7717 20.5231 27.0357 20.5231 27.2614 20.4075C27.4871 20.2918 27.6412 20.0775 27.9496 19.6488L29.2275 17.8721C29.5358 17.4435 29.69 17.2291 29.9157 17.1135C30.1413 16.9978 30.4054 16.9978 30.9334 16.9978H35.5382Z" fill="#303030"/>
<path d="M38 16.4294C38 17.0624 37.4868 17.5756 36.8538 17.5756C36.2207 17.5756 35.7075 17.0624 35.7075 16.4294C35.7075 15.7963 36.2207 15.2832 36.8538 15.2832C37.4868 15.2832 38 15.7963 38 16.4294Z" fill="#303030"/>
<path d="M20.4244 23.9752C20.4244 24.6083 19.9113 25.1214 19.2782 25.1214C18.6452 25.1214 18.132 24.6083 18.132 23.9752C18.132 23.3422 18.6452 22.829 19.2782 22.829C19.9113 22.829 20.4244 23.3422 20.4244 23.9752Z" fill="#303030"/>
<path d="M33.0329 27.414C33.0329 28.0471 32.5197 28.5603 31.8867 28.5603C31.2536 28.5603 30.7405 28.0471 30.7405 27.414C30.7405 26.781 31.2536 26.2678 31.8867 26.2678C32.5197 26.2678 33.0329 26.781 33.0329 27.414Z" fill="#303030"/>
<path d="M30.5641 27.9661H29.6623C29.3765 27.9661 29.2335 27.9661 29.1014 28.001C28.9696 28.0359 28.8458 28.0962 28.737 28.1783C28.6279 28.2607 28.5397 28.3732 28.3633 28.598L27.0756 30.2394C26.7657 30.6344 26.6107 30.832 26.3931 30.9378C26.1755 31.0437 25.9244 31.0437 25.4223 31.0437H20.4004C20.1793 31.5497 19.6744 31.9034 19.0869 31.9034C17.171 31.9034 17.171 31.9034 19.0869 31.9034C19.8782 31.9034 20.5197 31.2618 20.5197 30.4705C20.5197 30.2749 20.4805 30.0884 20.4095 29.9186H24.8693C25.3714 29.9186 25.6225 29.9186 25.8401 29.8127C26.0578 29.7068 26.2127 29.5093 26.5226 29.1142L27.6986 27.6153C27.9851 27.25 28.1284 27.0673 28.3259 26.9628C28.3468 26.9518 28.3681 26.9414 28.3897 26.9318C28.5938 26.8409 28.826 26.8409 29.2903 26.8409H30.5731C30.4965 27.0164 30.4539 27.2103 30.4539 27.414C30.4539 27.6097 30.4931 27.7962 30.5641 27.9661Z" fill="#303030"/>
<path d="M20.2331 30.4705C20.2331 31.1036 19.7199 31.6168 19.0869 31.6168C18.4539 31.6168 17.9407 31.1036 17.9407 30.4705C17.9407 29.8375 18.4539 29.3243 19.0869 29.3243C19.7199 29.3243 20.2331 29.8375 20.2331 30.4705Z" fill="#303030"/>
<path d="M35.8981 23.4021C35.8981 24.0351 35.3849 24.5483 34.7519 24.5483C34.1188 24.5483 33.6057 24.0351 33.6057 23.4021C33.6057 22.769 34.1188 22.2558 34.7519 22.2558C35.3849 22.2558 35.8981 22.769 35.8981 23.4021Z" fill="#303030"/>
<path d="M33.4383 22.829H26.4427C25.9175 22.829 25.6549 22.829 25.4301 22.9435C25.2054 23.0581 25.0511 23.2705 24.7424 23.6954L23.4529 25.4708C23.1443 25.8957 22.9899 26.1081 22.7652 26.2227C22.5404 26.3372 22.2778 26.3372 21.7527 26.3372H15.9997C15.4804 26.3372 15.2208 26.3372 14.9978 26.4495C14.7749 26.5619 14.6203 26.7705 14.3112 27.1877L12.9969 28.9616C12.6878 29.3788 12.5332 29.5875 12.3102 29.6998C12.0873 29.8121 11.8276 29.8121 11.3084 29.8121H6.93685C7.01073 29.9848 7.05162 30.1751 7.05162 30.3749C7.05162 30.5787 7.00907 30.7725 6.93237 30.9481H11.879C12.3982 30.9481 12.6579 30.9481 12.8808 30.8358C13.1038 30.7235 13.2584 30.5149 13.5675 30.0976L14.8818 28.3237C15.1909 27.9065 15.3455 27.6979 15.5684 27.5855C15.7914 27.4732 16.051 27.4732 16.5703 27.4732H22.33C22.8551 27.4732 23.1177 27.4732 23.3425 27.3587C23.5673 27.2441 23.7216 27.0317 24.0302 26.6068L25.3198 24.8314C25.6284 24.4065 25.7827 24.1941 26.0075 24.0795C26.2323 23.965 26.4948 23.965 27.02 23.965H33.4339C33.36 23.7922 33.3191 23.6019 33.3191 23.4021C33.3191 23.1983 33.3616 23.0045 33.4383 22.829Z" fill="#303030"/>
<path d="M6.76506 30.3749C6.76506 31.0079 6.25188 31.5211 5.61884 31.5211C4.9858 31.5211 4.47262 31.0079 4.47262 30.3749C4.47262 29.7418 4.9858 29.2287 5.61884 29.2287C6.25188 29.2287 6.76506 29.7418 6.76506 30.3749Z" fill="#303030"/>
<path d="M6.68416 38.2797V43.0782C8.25865 43.0782 9.29841 42.1245 9.29841 40.679C9.29841 39.2484 8.25865 38.2797 6.68416 38.2797ZM6.68416 45.8202H4.67891V44.8069C1.78244 44.8069 0 42.9888 0 40.6343C0 38.2797 1.7973 36.5511 4.67891 36.5511V35.7017H6.68416V36.5511C9.55092 36.5511 11.3631 38.2797 11.3631 40.6492C11.3631 42.9888 9.59548 44.8069 6.68416 44.8069V45.8202ZM4.67891 43.0782V38.2797C3.08957 38.2797 2.04981 39.2484 2.04981 40.679C2.04981 42.1245 3.08957 43.0782 4.67891 43.0782Z" fill="#303030"/>
<path d="M20.4861 42.9292V44.9857C19.5206 45.5073 18.4957 45.7159 17.3966 45.7159C14.4704 45.7159 12.48 43.5998 12.48 40.8131C12.48 37.8476 14.5447 35.8656 17.6342 35.8656C18.5997 35.8656 19.4761 36.0593 20.4119 36.4617V38.3989C19.5504 37.937 18.7037 37.8029 17.7976 37.8029C15.9112 37.8029 14.6783 38.9056 14.6783 40.8131C14.7378 42.7504 16.0894 43.7786 17.6639 43.7786C18.7037 43.7786 19.7137 43.4508 20.4861 42.9292Z" fill="#303030"/>
<path d="M24.0549 37.8178V45.4476H22.0645V36.0295H28.5704V37.8178H24.0549Z" fill="#303030"/>
<path d="M35.9609 39.8146V36.0295H37.9661V45.4476H35.9609V41.6327H31.7722V45.4476H29.7669V36.0295H31.7722V39.8146H35.9609Z" fill="#303030"/>
</svg>
