<svg width="38" height="46" viewBox="0 0 38 46" fill="none" xmlns="http://www.w3.org/2000/svg">
<path fill-rule="evenodd" clip-rule="evenodd" d="M32.7679 2.16126C32.9404 2.08255 32.9095 1.82835 32.722 1.80002C28.3035 1.13251 20.9799 0.84864 12.9122 5.24688C2.40248 10.9765 2.51227 18.488 4.11904 21.3468C4.17076 21.4388 4.14234 21.5545 4.05265 21.6101L3.17202 22.1566C3.08242 22.2122 2.9655 22.1866 2.91275 22.0953C0.783187 18.4092 1.16682 10.0351 12.2327 4.00235C22.8357 -1.7781 32.2328 0.183845 35.7999 0.928594C35.857 0.940519 35.9126 0.952132 35.9667 0.963396L37.7306 1.3306C37.9184 1.36969 37.9379 1.63021 37.758 1.69678L36.0684 2.32208C32.2993 3.71699 27.3272 6.41695 24.3497 8.62098C23.6075 9.1704 23.0081 9.67531 22.5874 10.1089C22.3771 10.3256 22.2227 10.513 22.1189 10.6689C22.0739 10.7365 22.0427 10.7918 22.0211 10.8356C22.0206 10.8367 22.0212 10.838 22.0224 10.8383C22.318 10.9222 22.9134 10.9507 23.939 10.8201L25.9258 10.5672C26.1214 10.5423 26.2219 10.7942 26.0629 10.9108L24.4483 12.0948C23.8157 12.5587 22.7805 13.2075 21.6633 13.9077C21.4971 14.0118 21.3291 14.1171 21.1604 14.2231C19.8369 15.0543 18.4448 15.9415 17.391 16.7241C16.8619 17.1171 16.4427 17.4659 16.165 17.7536C16.1381 17.7815 16.1566 17.8272 16.1953 17.8283C16.5626 17.8392 17.104 17.8036 17.8654 17.6949L19.4045 17.4752C19.5863 17.4493 19.6965 17.6697 19.5666 17.7995L18.4673 18.8979C17.4042 19.9602 15.4182 21.3485 13.2192 22.427C11.0997 23.4664 8.65374 24.2824 6.56199 24.1526C6.45668 24.146 6.37929 24.0528 6.38886 23.9477L6.48281 22.9164C6.49238 22.8113 6.58514 22.7342 6.69048 22.74C8.39797 22.8336 10.5535 22.155 12.5941 21.1543C13.7671 20.579 14.86 19.9182 15.7573 19.2862C15.7869 19.2654 15.7746 19.2188 15.7388 19.2141C15.4683 19.1789 15.183 19.1079 14.9452 18.9517C14.6751 18.7742 14.4782 18.4899 14.4591 18.1273C14.4426 17.816 14.5639 17.5459 14.679 17.354C14.8006 17.1515 14.9649 16.9549 15.1436 16.7697C15.502 16.3982 15.9943 15.9951 16.5447 15.5863C17.6498 14.7655 19.0882 13.85 20.4054 13.0228C20.5763 12.9154 20.7448 12.8098 20.9102 12.7061C21.1623 12.5481 21.407 12.3947 21.6417 12.2469C21.6597 12.2355 21.6555 12.208 21.635 12.2021C21.3344 12.1169 21.021 11.9643 20.8036 11.6816C20.5691 11.3766 20.5233 11.0223 20.5801 10.7037C20.6331 10.4063 20.775 10.1279 20.9377 9.88351C21.1047 9.63285 21.321 9.37741 21.5688 9.12197C22.0644 8.61125 22.7313 8.0547 23.5052 7.4818C25.8894 5.71693 29.4686 3.6669 32.7679 2.16126ZM15.8687 18.135C15.8686 18.1352 15.8686 18.1352 15.8687 18.135V18.135Z" fill="#303030"/>
<path fill-rule="evenodd" clip-rule="evenodd" d="M24.13 4.4209C17.9852 5.67257 6.43189 10.7718 2.11838 23.8916C2.09574 23.9605 2.12893 24.0354 2.1951 24.065C2.56371 24.2301 2.82 24.5996 2.82 25.0285C2.82 25.6113 2.3468 26.0838 1.76308 26.0838C1.71408 26.0838 1.66594 26.0805 1.61886 26.0741C1.54708 26.0643 1.47931 26.1102 1.46198 26.1805C1.03324 27.9201 0.726929 29.7859 0.566947 31.7856C0.560496 31.8663 0.612349 31.9401 0.690333 31.9616C0.710061 31.9671 0.730095 31.9688 0.749531 31.9671C0.748724 31.9776 0.747921 31.9881 0.747122 31.9986C0.752577 31.9877 0.757974 31.9766 0.763316 31.9654C0.815073 31.9566 0.860857 31.9235 0.882691 31.8725C1.00435 31.5884 1.09813 31.2353 1.19724 30.8622L1.20048 30.85C1.39124 30.1319 1.60988 29.3133 2.07968 28.6065C2.54495 27.9065 3.25997 27.312 4.45696 27.0533C4.5423 27.0348 4.59095 26.9442 4.55894 26.863C4.17361 25.8851 4.11183 24.4002 4.52169 22.6143C4.93077 20.8318 5.80721 18.7612 7.282 16.6196C10.2157 12.3595 15.5165 7.81976 24.206 4.71396C24.281 4.68715 24.3238 4.60671 24.3027 4.52989C24.3004 4.5215 24.2975 4.51344 24.294 4.50578C24.3094 4.50029 24.3248 4.4948 24.3402 4.48931C24.3238 4.49257 24.3073 4.49585 24.2908 4.49916C24.2607 4.44082 24.197 4.40726 24.13 4.4209Z" fill="#303030"/>
<path d="M35.5382 16.9978C35.4628 16.8235 35.4211 16.6313 35.4211 16.4294C35.4211 16.2256 35.4636 16.0318 35.5403 15.8563H30.359C29.8309 15.8563 29.5669 15.8563 29.3412 15.9719C29.1156 16.0876 28.9614 16.3019 28.6531 16.7306L27.3752 18.5072C27.0668 18.9359 26.9126 19.1503 26.687 19.2659C26.4613 19.3816 26.1973 19.3816 25.6692 19.3816H23.074C22.5519 19.3816 22.2908 19.3816 22.0669 19.495C21.8431 19.6084 21.6886 19.8189 21.3797 20.2399L19.654 22.5922C20.0375 22.6961 20.3572 22.9553 20.5413 23.2982L21.9475 21.3815C22.2564 20.9605 22.4109 20.75 22.6347 20.6365C22.8586 20.5231 23.1197 20.5231 23.6418 20.5231H26.2437C26.7718 20.5231 27.0358 20.5231 27.2615 20.4075C27.4871 20.2918 27.6413 20.0775 27.9497 19.6488L29.2276 17.8721C29.5359 17.4435 29.6901 17.2291 29.9157 17.1135C30.1414 16.9978 30.4054 16.9978 30.9335 16.9978H35.5382Z" fill="#303030"/>
<path d="M38.0001 16.4294C38.0001 17.0624 37.4869 17.5756 36.8538 17.5756C36.2208 17.5756 35.7076 17.0624 35.7076 16.4294C35.7076 15.7963 36.2208 15.2832 36.8538 15.2832C37.4869 15.2832 38.0001 15.7963 38.0001 16.4294Z" fill="#303030"/>
<path d="M20.4245 23.9752C20.4245 24.6083 19.9113 25.1214 19.2783 25.1214C18.6453 25.1214 18.1321 24.6083 18.1321 23.9752C18.1321 23.3422 18.6453 22.829 19.2783 22.829C19.9113 22.829 20.4245 23.3422 20.4245 23.9752Z" fill="#303030"/>
<path d="M33.033 27.414C33.033 28.0471 32.5198 28.5603 31.8868 28.5603C31.2537 28.5603 30.7405 28.0471 30.7405 27.414C30.7405 26.781 31.2537 26.2678 31.8868 26.2678C32.5198 26.2678 33.033 26.781 33.033 27.414Z" fill="#303030"/>
<path d="M30.5642 27.9661H29.6624C29.3765 27.9661 29.2336 27.9661 29.1015 28.001C28.9696 28.0359 28.8459 28.0962 28.737 28.1783C28.628 28.2607 28.5398 28.3732 28.3634 28.598L27.0757 30.2394C26.7658 30.6344 26.6108 30.832 26.3932 30.9378C26.1756 31.0437 25.9245 31.0437 25.4224 31.0437H20.4005C20.1794 31.5497 19.6745 31.9034 19.087 31.9034C17.1711 31.9034 17.1711 31.9034 19.087 31.9034C19.8783 31.9034 20.5198 31.2618 20.5198 30.4705C20.5198 30.2749 20.4805 30.0884 20.4096 29.9186H24.8694C25.3715 29.9186 25.6226 29.9186 25.8402 29.8127C26.0578 29.7068 26.2128 29.5093 26.5227 29.1142L27.6986 27.6153C27.9852 27.25 28.1285 27.0673 28.326 26.9628C28.3469 26.9518 28.3682 26.9414 28.3898 26.9318C28.5939 26.8409 28.826 26.8409 29.2904 26.8409H30.5732C30.4965 27.0164 30.454 27.2103 30.454 27.414C30.454 27.6097 30.4932 27.7962 30.5642 27.9661Z" fill="#303030"/>
<path d="M20.2332 30.4705C20.2332 31.1036 19.72 31.6168 19.087 31.6168C18.4539 31.6168 17.9408 31.1036 17.9408 30.4705C17.9408 29.8375 18.4539 29.3243 19.087 29.3243C19.72 29.3243 20.2332 29.8375 20.2332 30.4705Z" fill="#303030"/>
<path d="M35.8982 23.4021C35.8982 24.0351 35.385 24.5483 34.7519 24.5483C34.1189 24.5483 33.6057 24.0351 33.6057 23.4021C33.6057 22.769 34.1189 22.2558 34.7519 22.2558C35.385 22.2558 35.8982 22.769 35.8982 23.4021Z" fill="#303030"/>
<path d="M33.4384 22.829H26.4427C25.9176 22.829 25.655 22.829 25.4302 22.9435C25.2054 23.0581 25.0511 23.2705 24.7425 23.6954L23.453 25.4708C23.1443 25.8957 22.99 26.1081 22.7652 26.2227C22.5405 26.3372 22.2779 26.3372 21.7527 26.3372H15.9998C15.4805 26.3372 15.2209 26.3372 14.9979 26.4495C14.7749 26.5619 14.6204 26.7705 14.3113 27.1877L12.997 28.9616C12.6878 29.3788 12.5333 29.5875 12.3103 29.6998C12.0873 29.8121 11.8277 29.8121 11.3085 29.8121H6.93692C7.0108 29.9848 7.0517 30.1751 7.0517 30.3749C7.0517 30.5787 7.00915 30.7725 6.93245 30.9481H11.8791C12.3983 30.9481 12.6579 30.9481 12.8809 30.8358C13.1039 30.7235 13.2585 30.5149 13.5676 30.0976L14.8819 28.3237C15.191 27.9065 15.3455 27.6979 15.5685 27.5855C15.7915 27.4732 16.0511 27.4732 16.5704 27.4732H22.3301C22.8552 27.4732 23.1178 27.4732 23.3426 27.3587C23.5673 27.2441 23.7217 27.0317 24.0303 26.6068L25.3198 24.8314C25.6285 24.4065 25.7828 24.1941 26.0076 24.0795C26.2323 23.965 26.4949 23.965 27.0201 23.965H33.434C33.3601 23.7922 33.3192 23.6019 33.3192 23.4021C33.3192 23.1983 33.3617 23.0045 33.4384 22.829Z" fill="#303030"/>
<path d="M6.76514 30.3749C6.76514 31.0079 6.25196 31.5211 5.61892 31.5211C4.98588 31.5211 4.4727 31.0079 4.4727 30.3749C4.4727 29.7418 4.98588 29.2287 5.61892 29.2287C6.25196 29.2287 6.76514 29.7418 6.76514 30.3749Z" fill="#303030"/>
<path d="M6.68416 38.2797V43.0782C8.25865 43.0782 9.29841 42.1245 9.29841 40.679C9.29841 39.2484 8.25865 38.2797 6.68416 38.2797ZM6.68416 45.8202H4.67891V44.8069C1.78244 44.8069 0 42.9888 0 40.6343C0 38.2797 1.7973 36.5511 4.67891 36.5511V35.7017H6.68416V36.5511C9.55092 36.5511 11.3631 38.2797 11.3631 40.6492C11.3631 42.9888 9.59548 44.8069 6.68416 44.8069V45.8202ZM4.67891 43.0782V38.2797C3.08957 38.2797 2.04981 39.2484 2.04981 40.679C2.04981 42.1245 3.08957 43.0782 4.67891 43.0782Z" fill="#303030"/>
<path d="M20.4861 42.9292V44.9857C19.5206 45.5073 18.4957 45.7159 17.3966 45.7159C14.4704 45.7159 12.48 43.5998 12.48 40.8131C12.48 37.8476 14.5447 35.8656 17.6342 35.8656C18.5997 35.8656 19.4761 36.0593 20.4119 36.4617V38.3989C19.5504 37.937 18.7037 37.8029 17.7976 37.8029C15.9112 37.8029 14.6783 38.9056 14.6783 40.8131C14.7378 42.7504 16.0894 43.7786 17.6639 43.7786C18.7037 43.7786 19.7137 43.4508 20.4861 42.9292Z" fill="#303030"/>
<path d="M24.0549 37.8178V45.4476H22.0645V36.0295H28.5704V37.8178H24.0549Z" fill="#303030"/>
<path d="M35.9609 39.8146V36.0295H37.9661V45.4476H35.9609V41.6327H31.7722V45.4476H29.7669V36.0295H31.7722V39.8146H35.9609Z" fill="#303030"/>
</svg>
