<svg width="24" height="24" viewBox="0 0 24 24" fill="none" xmlns="http://www.w3.org/2000/svg">
<path d="M12 24C18.6274 24 24 18.6274 24 12C24 5.37258 18.6274 0 12 0C5.37258 0 0 5.37258 0 12C0 18.6274 5.37258 24 12 24Z" fill="#006CDC"/>
<path fill-rule="evenodd" clip-rule="evenodd" d="M5.4318 11.8733C8.93004 10.3492 11.2628 9.3444 12.4299 8.85894C15.7625 7.47282 16.4549 7.23204 16.9063 7.22409C17.0055 7.22234 17.2275 7.24694 17.3713 7.3636C17.4927 7.46211 17.5261 7.59518 17.5421 7.68858C17.558 7.78198 17.5779 7.99474 17.5621 8.16098C17.3815 10.0585 16.6001 14.6632 16.2026 16.7884C16.0344 17.6876 15.7031 17.9891 15.3825 18.0187C14.6856 18.0828 14.1565 17.5581 13.4815 17.1157C12.4254 16.4234 11.8287 15.9924 10.8035 15.3168C9.61874 14.5361 10.3868 14.1069 11.062 13.4056C11.2387 13.2221 14.3091 10.4294 14.3685 10.176C14.3759 10.1443 14.3828 10.0262 14.3127 9.96385C14.2425 9.90149 14.1389 9.92282 14.0642 9.93978C13.9583 9.96382 12.2711 11.079 9.00254 13.2854C8.52363 13.6142 8.08985 13.7744 7.70119 13.766C7.27273 13.7568 6.44854 13.5238 5.83584 13.3246C5.08434 13.0803 4.48706 12.9512 4.53907 12.5363C4.56616 12.3202 4.86374 12.0992 5.4318 11.8733Z" fill="white"/>
</svg>
