<svg width="24" height="24" viewBox="0 0 24 24" fill="none" xmlns="http://www.w3.org/2000/svg">
<path d="M0 11.52C0 6.08942 0 3.37414 1.67036 1.68707C3.34073 0 6.02913 0 11.4059 0H12.3564C17.7332 0 20.4216 0 22.092 1.68707C23.7624 3.37414 23.7624 6.08942 23.7624 11.52V12.48C23.7624 17.9106 23.7624 20.6259 22.092 22.3129C20.4216 24 17.7332 24 12.3564 24H11.4059C6.02913 24 3.34073 24 1.67036 22.3129C0 20.6259 0 17.9106 0 12.48V11.52Z" fill="#006CDC"/>
<path d="M12.6436 17.2901C7.22775 17.2901 4.13867 13.5401 4.00995 7.30008H6.72283C6.81194 11.8801 8.8119 13.8201 10.396 14.2201V7.30008H12.9506V11.25C14.5149 11.0801 16.1583 9.28008 16.7128 7.30008H19.2673C18.8415 9.74009 17.0594 11.5401 15.792 12.2801C17.0594 12.8801 19.0892 14.4501 19.8615 17.2901H17.0495C16.4455 15.3901 14.9407 13.9201 12.9506 13.7201V17.2901H12.6436Z" fill="white"/>
</svg>
